<svg width="179" height="58" viewBox="0 0 179 58" fill="none" xmlns="http://www.w3.org/2000/svg">
<path d="M32.3748 23.6849L35.4702 7.88237L47.8043 18.4264L32.3748 23.6849Z" fill="#1CE1F8"/>
<path d="M22.8685 31.4095L11.3246 42.79L7.09922 27.2439L22.8685 31.4095Z" fill="#1CE1F8"/>
<path d="M25.0811 24.0236L10.9428 15.9763L25.0811 7.9291L25.0811 24.0236Z" fill="#1CE1F8"/>
<path d="M34.5343 31.0801L50.6801 28.6986L44.6993 43.6742L34.5343 31.0801Z" fill="#1CE1F8"/>
<path d="M29.1288 35.0189L37.2916 48.9571H20.966L29.1288 35.0189Z" fill="#1CE1F8"/>
<path d="M29 0.82074L31.216 26.4035L56.5806 20.5757L32.5855 30.5589L46.0458 52.5399L29 33.127L11.9542 52.5399L25.4145 30.5589L1.41936 20.5757L26.784 26.4035L29 0.82074Z" fill="#18C7DB"/>
<ellipse cx="29.0001" cy="1.23113" rx="1.2488" ry="1.23113" fill="#1CE1F8"/>
<ellipse cx="56.1961" cy="20.3821" rx="1.2488" ry="1.23113" fill="#1CE1F8"/>
<ellipse cx="45.9282" cy="52.1179" rx="1.2488" ry="1.23113" fill="#1CE1F8"/>
<ellipse cx="12.3491" cy="51.8443" rx="1.2488" ry="1.23113" fill="#1CE1F8"/>
<ellipse cx="2.6365" cy="20.9292" rx="1.2488" ry="1.23113" fill="#1CE1F8"/>
<path d="M72.9402 40C72.7642 40 72.6202 39.944 72.5082 39.832C72.3962 39.72 72.3402 39.576 72.3402 39.4V23.8C72.3402 23.624 72.3962 23.48 72.5082 23.368C72.6202 23.256 72.7642 23.2 72.9402 23.2H75.4842C75.7562 23.2 75.9482 23.264 76.0602 23.392C76.1882 23.504 76.2682 23.592 76.3002 23.656L82.1562 32.896V23.8C82.1562 23.624 82.2122 23.48 82.3242 23.368C82.4362 23.256 82.5802 23.2 82.7562 23.2H85.6362C85.8122 23.2 85.9562 23.256 86.0682 23.368C86.1802 23.48 86.2362 23.624 86.2362 23.8V39.4C86.2362 39.56 86.1802 39.704 86.0682 39.832C85.9562 39.944 85.8122 40 85.6362 40H83.0682C82.8122 40 82.6202 39.936 82.4922 39.808C82.3802 39.68 82.3082 39.592 82.2762 39.544L76.4202 30.664V39.4C76.4202 39.576 76.3642 39.72 76.2522 39.832C76.1402 39.944 75.9962 40 75.8202 40H72.9402ZM89.9262 40C89.7502 40 89.6062 39.944 89.4942 39.832C89.3822 39.72 89.3262 39.576 89.3262 39.4V28.12C89.3262 27.944 89.3822 27.8 89.4942 27.688C89.6062 27.576 89.7502 27.52 89.9262 27.52H92.7582C92.9182 27.52 93.0542 27.576 93.1662 27.688C93.2942 27.8 93.3582 27.944 93.3582 28.12V39.4C93.3582 39.576 93.2942 39.72 93.1662 39.832C93.0542 39.944 92.9182 40 92.7582 40H89.9262ZM89.9022 25.72C89.7262 25.72 89.5822 25.664 89.4702 25.552C89.3582 25.44 89.3022 25.296 89.3022 25.12V22.984C89.3022 22.808 89.3582 22.664 89.4702 22.552C89.5822 22.424 89.7262 22.36 89.9022 22.36H92.7582C92.9342 22.36 93.0782 22.424 93.1902 22.552C93.3182 22.664 93.3822 22.808 93.3822 22.984V25.12C93.3822 25.296 93.3182 25.44 93.1902 25.552C93.0782 25.664 92.9342 25.72 92.7582 25.72H89.9022ZM100.826 40.24C100.058 40.24 99.3619 40.12 98.7379 39.88C98.1299 39.624 97.6019 39.256 97.1539 38.776C96.7219 38.28 96.3859 37.688 96.1459 37C95.9059 36.296 95.7699 35.496 95.7379 34.6C95.7219 34.28 95.7139 34 95.7139 33.76C95.7139 33.504 95.7219 33.224 95.7379 32.92C95.7699 32.056 95.9059 31.28 96.1459 30.592C96.3859 29.904 96.7219 29.312 97.1539 28.816C97.5859 28.32 98.1139 27.944 98.7379 27.688C99.3619 27.416 100.058 27.28 100.826 27.28C101.626 27.28 102.314 27.416 102.89 27.688C103.466 27.944 103.954 28.28 104.354 28.696V23.56C104.354 23.384 104.41 23.24 104.522 23.128C104.634 23.016 104.778 22.96 104.954 22.96H107.882C108.042 22.96 108.178 23.016 108.29 23.128C108.418 23.24 108.482 23.384 108.482 23.56V39.4C108.482 39.576 108.418 39.72 108.29 39.832C108.178 39.944 108.042 40 107.882 40H105.17C104.994 40 104.85 39.944 104.738 39.832C104.626 39.72 104.57 39.576 104.57 39.4V38.632C104.186 39.096 103.69 39.48 103.082 39.784C102.474 40.088 101.722 40.24 100.826 40.24ZM102.122 37.024C102.666 37.024 103.09 36.912 103.394 36.688C103.714 36.448 103.946 36.144 104.09 35.776C104.25 35.408 104.338 35.008 104.354 34.576C104.37 34.256 104.378 33.952 104.378 33.664C104.378 33.376 104.37 33.08 104.354 32.776C104.338 32.376 104.25 32.008 104.09 31.672C103.93 31.32 103.69 31.04 103.37 30.832C103.05 30.608 102.634 30.496 102.122 30.496C101.594 30.496 101.17 30.608 100.85 30.832C100.546 31.056 100.33 31.36 100.202 31.744C100.074 32.128 99.9939 32.552 99.9619 33.016C99.9139 33.512 99.9139 34.008 99.9619 34.504C99.9939 34.968 100.074 35.392 100.202 35.776C100.33 36.16 100.546 36.464 100.85 36.688C101.17 36.912 101.594 37.024 102.122 37.024ZM117.215 40.24C115.871 40.24 114.735 40.024 113.807 39.592C112.895 39.16 112.191 38.544 111.695 37.744C111.215 36.928 110.943 35.96 110.879 34.84C110.863 34.52 110.855 34.16 110.855 33.76C110.855 33.344 110.863 32.984 110.879 32.68C110.943 31.544 111.231 30.576 111.743 29.776C112.255 28.976 112.967 28.36 113.879 27.928C114.807 27.496 115.919 27.28 117.215 27.28C118.527 27.28 119.639 27.496 120.551 27.928C121.479 28.36 122.199 28.976 122.711 29.776C123.223 30.576 123.511 31.544 123.575 32.68C123.591 32.984 123.599 33.344 123.599 33.76C123.599 34.16 123.591 34.52 123.575 34.84C123.511 35.96 123.231 36.928 122.735 37.744C122.255 38.544 121.551 39.16 120.623 39.592C119.711 40.024 118.575 40.24 117.215 40.24ZM117.215 37.312C117.935 37.312 118.455 37.096 118.775 36.664C119.111 36.232 119.303 35.584 119.351 34.72C119.367 34.48 119.375 34.16 119.375 33.76C119.375 33.36 119.367 33.04 119.351 32.8C119.303 31.952 119.111 31.312 118.775 30.88C118.455 30.432 117.935 30.208 117.215 30.208C116.511 30.208 115.991 30.432 115.655 30.88C115.319 31.312 115.135 31.952 115.103 32.8C115.087 33.04 115.079 33.36 115.079 33.76C115.079 34.16 115.087 34.48 115.103 34.72C115.135 35.584 115.319 36.232 115.655 36.664C115.991 37.096 116.511 37.312 117.215 37.312ZM131.695 40.24C130.511 40.24 129.463 40.024 128.551 39.592C127.639 39.16 126.911 38.536 126.367 37.72C125.839 36.888 125.551 35.896 125.503 34.744C125.487 34.488 125.479 34.168 125.479 33.784C125.479 33.384 125.487 33.056 125.503 32.8C125.551 31.632 125.839 30.64 126.367 29.824C126.895 28.992 127.615 28.36 128.527 27.928C129.455 27.496 130.511 27.28 131.695 27.28C132.799 27.28 133.743 27.44 134.527 27.76C135.311 28.064 135.951 28.448 136.447 28.912C136.943 29.376 137.311 29.856 137.551 30.352C137.807 30.832 137.943 31.256 137.959 31.624C137.975 31.784 137.919 31.928 137.791 32.056C137.663 32.168 137.519 32.224 137.359 32.224H134.311C134.135 32.224 133.999 32.184 133.903 32.104C133.807 32.024 133.719 31.904 133.639 31.744C133.447 31.248 133.199 30.896 132.895 30.688C132.607 30.48 132.231 30.376 131.767 30.376C131.127 30.376 130.631 30.584 130.279 31C129.943 31.416 129.759 32.056 129.727 32.92C129.711 33.56 129.711 34.128 129.727 34.624C129.759 35.504 129.943 36.144 130.279 36.544C130.631 36.944 131.127 37.144 131.767 37.144C132.263 37.144 132.655 37.04 132.943 36.832C133.231 36.624 133.463 36.272 133.639 35.776C133.719 35.616 133.807 35.496 133.903 35.416C133.999 35.336 134.135 35.296 134.311 35.296H137.359C137.519 35.296 137.663 35.36 137.791 35.488C137.919 35.6 137.975 35.736 137.959 35.896C137.943 36.168 137.863 36.488 137.719 36.856C137.575 37.208 137.351 37.584 137.047 37.984C136.743 38.384 136.343 38.76 135.847 39.112C135.367 39.448 134.783 39.72 134.095 39.928C133.407 40.136 132.607 40.24 131.695 40.24ZM146.019 40.24C144.675 40.24 143.539 40.024 142.611 39.592C141.699 39.16 140.995 38.544 140.499 37.744C140.019 36.928 139.747 35.96 139.683 34.84C139.667 34.52 139.659 34.16 139.659 33.76C139.659 33.344 139.667 32.984 139.683 32.68C139.747 31.544 140.035 30.576 140.547 29.776C141.059 28.976 141.771 28.36 142.683 27.928C143.611 27.496 144.723 27.28 146.019 27.28C147.331 27.28 148.443 27.496 149.355 27.928C150.283 28.36 151.003 28.976 151.515 29.776C152.027 30.576 152.315 31.544 152.379 32.68C152.395 32.984 152.403 33.344 152.403 33.76C152.403 34.16 152.395 34.52 152.379 34.84C152.315 35.96 152.035 36.928 151.539 37.744C151.059 38.544 150.355 39.16 149.427 39.592C148.515 40.024 147.379 40.24 146.019 40.24ZM146.019 37.312C146.739 37.312 147.259 37.096 147.579 36.664C147.915 36.232 148.107 35.584 148.155 34.72C148.171 34.48 148.179 34.16 148.179 33.76C148.179 33.36 148.171 33.04 148.155 32.8C148.107 31.952 147.915 31.312 147.579 30.88C147.259 30.432 146.739 30.208 146.019 30.208C145.315 30.208 144.795 30.432 144.459 30.88C144.123 31.312 143.939 31.952 143.907 32.8C143.891 33.04 143.883 33.36 143.883 33.76C143.883 34.16 143.891 34.48 143.907 34.72C143.939 35.584 144.123 36.232 144.459 36.664C144.795 37.096 145.315 37.312 146.019 37.312ZM155.364 40C155.188 40 155.044 39.944 154.932 39.832C154.82 39.72 154.764 39.576 154.764 39.4V28.12C154.764 27.944 154.82 27.8 154.932 27.688C155.044 27.576 155.188 27.52 155.364 27.52H158.196C158.356 27.52 158.492 27.576 158.604 27.688C158.732 27.8 158.796 27.944 158.796 28.12V39.4C158.796 39.576 158.732 39.72 158.604 39.832C158.492 39.944 158.356 40 158.196 40H155.364ZM155.34 25.72C155.164 25.72 155.02 25.664 154.908 25.552C154.796 25.44 154.74 25.296 154.74 25.12V22.984C154.74 22.808 154.796 22.664 154.908 22.552C155.02 22.424 155.164 22.36 155.34 22.36H158.196C158.372 22.36 158.516 22.424 158.628 22.552C158.756 22.664 158.82 22.808 158.82 22.984V25.12C158.82 25.296 158.756 25.44 158.628 25.552C158.516 25.664 158.372 25.72 158.196 25.72H155.34ZM162.957 40C162.781 40 162.637 39.944 162.525 39.832C162.413 39.72 162.357 39.576 162.357 39.4V28.12C162.357 27.944 162.413 27.8 162.525 27.688C162.637 27.576 162.781 27.52 162.957 27.52H165.717C165.893 27.52 166.037 27.576 166.149 27.688C166.261 27.8 166.317 27.944 166.317 28.12V29.032C166.733 28.536 167.277 28.12 167.949 27.784C168.621 27.448 169.413 27.28 170.325 27.28C171.253 27.28 172.069 27.488 172.773 27.904C173.493 28.32 174.053 28.936 174.453 29.752C174.869 30.552 175.077 31.536 175.077 32.704V39.4C175.077 39.576 175.013 39.72 174.885 39.832C174.773 39.944 174.637 40 174.477 40H171.453C171.293 40 171.149 39.944 171.021 39.832C170.909 39.72 170.853 39.576 170.853 39.4V32.848C170.853 32.096 170.669 31.52 170.301 31.12C169.949 30.704 169.421 30.496 168.717 30.496C168.061 30.496 167.533 30.704 167.133 31.12C166.749 31.52 166.557 32.096 166.557 32.848V39.4C166.557 39.576 166.493 39.72 166.365 39.832C166.253 39.944 166.117 40 165.957 40H162.957Z" fill="#18C7DB"/>
</svg>
