<svg width="58" height="58" viewBox="0 0 58 58" fill="none" xmlns="http://www.w3.org/2000/svg">
<path d="M32.3748 23.6849L35.4702 7.88237L47.8043 18.4264L32.3748 23.6849Z" fill="#1CE1F8"/>
<path d="M22.8685 31.4095L11.3246 42.79L7.09922 27.2439L22.8685 31.4095Z" fill="#1CE1F8"/>
<path d="M25.0811 24.0236L10.9428 15.9763L25.0811 7.92909L25.0811 24.0236Z" fill="#1CE1F8"/>
<path d="M34.5343 31.0801L50.6801 28.6986L44.6993 43.6742L34.5343 31.0801Z" fill="#1CE1F8"/>
<path d="M29.1288 35.0189L37.2916 48.9571H20.966L29.1288 35.0189Z" fill="#1CE1F8"/>
<path d="M29 0.82074L31.216 26.4035L56.5806 20.5757L32.5855 30.5589L46.0458 52.5399L29 33.127L11.9542 52.5399L25.4145 30.5589L1.41936 20.5757L26.784 26.4035L29 0.82074Z" fill="#18C7DB"/>
<ellipse cx="29.0001" cy="1.23113" rx="1.2488" ry="1.23113" fill="#1CE1F8"/>
<ellipse cx="56.1961" cy="20.3821" rx="1.2488" ry="1.23113" fill="#1CE1F8"/>
<ellipse cx="45.9282" cy="52.118" rx="1.2488" ry="1.23113" fill="#1CE1F8"/>
<ellipse cx="12.3491" cy="51.8443" rx="1.2488" ry="1.23113" fill="#1CE1F8"/>
<ellipse cx="2.6365" cy="20.9292" rx="1.2488" ry="1.23113" fill="#1CE1F8"/>
</svg>
